<svg width="0" height="0" class="hidden">
  <symbol xmlns="http://www.w3.org/2000/svg" viewBox="0 0 126 126" id="feature-1">
    <circle cx="63" cy="63" r="63" fill="#060606"></circle>
    <g fill="#ffd432">
      <path d="M48.486 69.123a11.276 11.276 0 1011.275 11.276 11.276 11.276 0 00-11.275-11.276zm0 18.449a7.176 7.176 0 117.175-7.175 7.176 7.176 0 01-7.175 7.175z"></path>
      <path d="M76.614 88.894l-4.07-3.351a24.738 24.738 0 000-10.292l4.071-3.351a2.555 2.555 0 00.59-3.26l-4.178-7.236a2.555 2.555 0 00-3.118-1.119l-4.94 1.851a24.6 24.6 0 00-8.91-5.149l-.867-5.2a2.555 2.555 0 00-2.527-2.141h-8.358a2.555 2.555 0 00-2.527 2.141l-.866 5.2a24.6 24.6 0 00-8.91 5.149l-4.94-1.851a2.555 2.555 0 00-3.118 1.119l-4.178 7.237a2.555 2.555 0 00.59 3.26l4.071 3.351a24.738 24.738 0 000 10.292l-4.071 3.35a2.555 2.555 0 00-.59 3.26l4.178 7.236a2.555 2.555 0 003.118 1.119l4.94-1.851a24.6 24.6 0 008.91 5.149l.866 5.2a2.555 2.555 0 002.527 2.141h8.356a2.555 2.555 0 002.527-2.141l.867-5.2a24.6 24.6 0 008.91-5.149l4.942 1.851a2.555 2.555 0 003.118-1.119l4.178-7.238a2.555 2.555 0 00-.589-3.258zm-6.487 7.318l-6.164-2.309-.933.94a20.494 20.494 0 01-9.3 5.377l-1.281.337-1.082 6.489h-5.755l-1.082-6.489-1.281-.334a20.494 20.494 0 01-9.3-5.377l-.933-.94-6.169 2.306-2.877-4.98 5.077-4.18-.346-1.277a20.614 20.614 0 010-10.753l.346-1.277-5.077-4.182 2.875-4.982 6.164 2.309.933-.94a20.494 20.494 0 019.3-5.377l1.281-.337 1.082-6.487h5.753l1.082 6.489 1.281.337a20.494 20.494 0 019.3 5.377l.933.94 6.164-2.309 2.875 4.982-5.077 4.18.346 1.277a20.614 20.614 0 010 10.753l-.346 1.277 5.077 4.18zm12.809-65.167a7.807 7.807 0 107.807 7.807 7.807 7.807 0 00-7.807-7.807zm0 12.775a4.969 4.969 0 114.969-4.969 4.969 4.969 0 01-4.969 4.969z"></path>
      <path d="M102.414 44.735l-2.819-2.32a17.129 17.129 0 000-7.126l2.819-2.32a1.769 1.769 0 00.409-2.257L99.926 25.7a1.769 1.769 0 00-2.159-.775l-3.42 1.282a17.037 17.037 0 00-6.17-3.566l-.6-3.6a1.769 1.769 0 00-1.751-1.481h-5.782a1.769 1.769 0 00-1.75 1.482l-.6 3.6a17.035 17.035 0 00-6.168 3.566l-3.421-1.282a1.769 1.769 0 00-2.159.775l-2.893 5.01a1.769 1.769 0 00.409 2.257l2.819 2.32a17.129 17.129 0 000 7.126l-2.82 2.321a1.769 1.769 0 00-.409 2.257l2.893 5.01a1.769 1.769 0 002.159.775l3.422-1.282a17.035 17.035 0 006.17 3.566l.6 3.6a1.769 1.769 0 001.75 1.482h5.78a1.769 1.769 0 001.75-1.482l.6-3.6a17.037 17.037 0 006.17-3.566l3.422 1.282a1.769 1.769 0 002.159-.775l2.899-5.012a1.769 1.769 0 00-.41-2.255zm-4.488 5.066l-4.268-1.6-.646.651a14.19 14.19 0 01-6.442 3.723l-.887.233-.757 4.495h-3.979l-.749-4.493-.887-.233a14.19 14.19 0 01-6.442-3.723l-.646-.651-4.268 1.6-1.993-3.45 3.515-2.894-.24-.884a14.274 14.274 0 010-7.445l.24-.884-3.515-2.9 1.991-3.449 4.268 1.6.646-.651a14.19 14.19 0 016.442-3.723l.887-.233.749-4.492h3.981l.749 4.493.887.233a14.19 14.19 0 016.442 3.723l.646.651 4.268-1.6 1.991 3.449-3.511 2.898.24.884a14.274 14.274 0 010 7.445l-.24.884 3.515 2.894z"></path>
    </g>
  </symbol>
  <symbol xmlns="http://www.w3.org/2000/svg" viewBox="0 0 127 126" id="feature-2">
    <ellipse cx="63.5" cy="63" rx="63.5" ry="63"></ellipse>
    <path d="M39.836 85.773h58.151V24.145H39.676a9.767 9.767 0 00-9.735 9.737V90.7c0 5.681 4.458 10.479 9.737 10.479h58.309v-5.135H39.676c-2.408 0-4.6-2.547-4.6-5.343a4.912 4.912 0 014.761-4.928zm41.461-56.44v27.735l-7.769-6.82-7.64 6.781V29.333zm-20.542-.052v34.666h5.079l7.715-6.845 7.8 6.845h5.079V29.281h6.421v51.356h-47.49l-.011-51.356zm-21.077 0h.534l.016 51.356h-.388a9.594 9.594 0 00-4.762 1.263V33.921a4.627 4.627 0 014.6-4.64z" fill="#ffd432"></path>
  </symbol>
  <symbol xmlns="http://www.w3.org/2000/svg" viewBox="0 0 126 126" id="feature-3">
    <circle cx="63" cy="63" r="63"></circle>
    <g fill="#ffd432" fill-rule="evenodd">
      <path d="M91.687 28.809H35.716a4.664 4.664 0 00-4.665 4.665v55.971a4.664 4.664 0 004.664 4.664h55.972a4.664 4.664 0 004.667-4.664V33.474a4.664 4.664 0 00-4.667-4.665zm-55.971-4.664a9.329 9.329 0 00-9.329 9.329v55.971a9.329 9.329 0 009.329 9.329h55.971a9.329 9.329 0 009.331-9.329V33.474a9.329 9.329 0 00-9.331-9.329z"></path>
      <path d="M58.356 45.817a2.332 2.332 0 010 3.3L46.011 61.46l12.347 12.348a2.335 2.335 0 11-3.3 3.3l-13.995-14a2.332 2.332 0 010-3.3l13.993-13.991a2.332 2.332 0 013.3 0zm10.691 0a2.332 2.332 0 000 3.3L81.395 61.46 69.047 73.808a2.335 2.335 0 103.3 3.3l13.996-14a2.332 2.332 0 000-3.3L72.35 45.817a2.332 2.332 0 00-3.3 0z"></path>
    </g>
  </symbol>
  <symbol xmlns="http://www.w3.org/2000/svg" viewBox="0 0 126 126" id="feature-4">
    <circle cx="63" cy="63" r="63"></circle>
    <g fill="#efc62e">
      <path d="M73.763 16.427l-10.529-5.452-10.532 5.452-11.726 1.779-5.313 10.602-8.437 8.33 1.93 11.7-1.932 11.7 8.437 8.33 5.312 10.607L52.7 81.253l10.535 5.455 10.528-5.457 11.73-1.776 5.312-10.6 8.437-8.33-1.93-11.7 1.932-11.7-8.437-8.33-5.312-10.6zm7.548 7.528l-9.528-1.444-8.549-4.436-8.551 4.433-9.528 1.444-4.317 8.613-6.855 6.766 1.571 9.508-1.579 9.506 6.86 6.765 4.317 8.613 9.528 1.444 8.555 4.429 8.557-4.429 9.522-1.444 4.317-8.613 6.855-6.765-1.565-9.505 1.565-9.505-6.855-6.765-4.317-8.615z" fill-rule="evenodd"></path>
      <path d="M37.991 85.405v26.541l25.243-6.31 25.243 6.31V85.402l-12.734 1.932-12.509 6.477-12.509-6.477z"></path>
    </g>
  </symbol>
</svg>