<svg id="Component_2_1" data-name="Component 2 – 1" xmlns="http://www.w3.org/2000/svg" width="166" height="166" viewBox="0 0 166 166">
  <circle id="Ellipse_10" data-name="Ellipse 10" cx="83" cy="83" r="83"/>
  <path id="desktop" d="M50.438,66.375h8.625a4.313,4.313,0,1,1,0,8.625H33.188a4.313,4.313,0,1,1,0-8.625h8.625V57.75H11.625A8.625,8.625,0,0,1,3,49.125v-34.5A8.625,8.625,0,0,1,11.625,6h69a8.625,8.625,0,0,1,8.625,8.625v34.5a8.625,8.625,0,0,1-8.625,8.625H50.438ZM11.625,14.625v34.5h69v-34.5Z" transform="translate(37 43)" fill="#efc62e" fill-rule="evenodd"/>
</svg>
