<svg width="0" height="0" class="hidden">
  <symbol xmlns="http://www.w3.org/2000/svg" viewBox="0 0 166 166" id="nursery">
    <circle cx="83" cy="83" r="83"></circle>
    <path d="M46.125 56.125v54.75h73v-54.75zm0-9.125h73a9.125 9.125 0 019.125 9.125v54.75a9.125 9.125 0 01-9.125 9.125h-73A9.125 9.125 0 0137 110.875v-54.75A9.125 9.125 0 0146.125 47zm15.969 31.938a6.844 6.844 0 10-6.844-6.844 6.844 6.844 0 006.844 6.844zm-2.281 13.687l9.125-9.125 9.125 9.125 18.25-18.25L110 88.063v13.687H59.813z" fill="#efc62e"></path>
  </symbol>
  <symbol xmlns="http://www.w3.org/2000/svg" viewBox="0 0 166 166" id="junior">
    <circle cx="83" cy="83" r="83"></circle>
    <path d="M87.438 109.375h8.625a4.313 4.313 0 110 8.625H70.188a4.313 4.313 0 110-8.625h8.625v-8.625H48.625A8.625 8.625 0 0140 92.125v-34.5A8.625 8.625 0 0148.625 49h69a8.625 8.625 0 018.625 8.625v34.5a8.625 8.625 0 01-8.625 8.625H87.438zm-38.813-51.75v34.5h69v-34.5z" fill="#efc62e" fill-rule="evenodd"></path>
  </symbol>
  <symbol xmlns="http://www.w3.org/2000/svg" viewBox="0 0 166 166" id="senior">
    <circle cx="83" cy="83" r="83"></circle>
    <path d="M36 83.5A47.5 47.5 0 1183.5 131 47.5 47.5 0 0136 83.5zm9.5 0a38 38 0 1038-38 38 38 0 00-38 38zm20.2-7.372c1.153-2.413 3.056-9.253 4.427-9.253s.868 3.436 2.093 3.733c1.032.253.238-1.536 3.1-1.852a11.75 11.75 0 015.985 1.435 14.83 14.83 0 006.5 0s-1.647-2.5.371-3.316 4.759 2.2 4.858 4.158-4.484 3.262-4.484 3.262l4.484 2.692s1.317-4.171 4.117-4.215c2.5-.048 5.621 4.512 4.158 6.571s-2.4.643-2.4.643-4.465 4.522-5.871 5.333a4.395 4.395 0 01-3.363 0s-.83 1.539 0 2.248c1.685 1.739 6.064 3.467 6.064 3.467s13.461 2.191 13.886 4.933-10.716 16.625-12.47 16.625H93c-1.694-2.993 2.739-12.559 2.739-12.559s-2.28-2.527-2.739-4.066.883-4.246.883-4.246l-6.074-2.8s-3.23 0-4.829-1.27-2.445-8.313-2.445-8.313L74.741 75.1s-5.035 6.394-6.672 5.576-3.515-2.138-2.365-4.544zm31.2-9.966c-4.009 0-13.658-5.1-12.037-7.837 0-3.924 10.14-3.334 12.315-3.334s7.5 1.681 10.463 4.037-1.251 5.713-2.717 7.134-4.015 0-8.028 0z" fill="#efc62e" fill-rule="evenodd"></path>
  </symbol>
</svg>