<svg id="Component_1_1" data-name="Component 1 – 1" xmlns="http://www.w3.org/2000/svg" width="166" height="166" viewBox="0 0 166 166">
  <circle id="Ellipse_9" data-name="Ellipse 9" cx="83" cy="83" r="83"/>
  <path id="picture" d="M12.125,15.125v54.75h73V15.125Zm0-9.125h73a9.125,9.125,0,0,1,9.125,9.125v54.75A9.125,9.125,0,0,1,85.125,79h-73A9.125,9.125,0,0,1,3,69.875V15.125A9.125,9.125,0,0,1,12.125,6ZM28.094,37.938a6.844,6.844,0,1,0-6.844-6.844A6.844,6.844,0,0,0,28.094,37.938ZM25.813,51.625,34.938,42.5l9.125,9.125,18.25-18.25L76,47.063V60.75H25.813Z" transform="translate(34 41)" fill="#efc62e"/>
</svg>
