<svg id="Component_3_1" data-name="Component 3 – 1" xmlns="http://www.w3.org/2000/svg" width="166" height="166" viewBox="0 0 166 166">
  <circle id="Ellipse_11" data-name="Ellipse 11" cx="83" cy="83" r="83"/>
  <path id="globe" d="M3,50.5A47.5,47.5,0,1,1,50.5,98,47.5,47.5,0,0,1,3,50.5Zm9.5,0a38,38,0,1,0,38-38A38,38,0,0,0,12.5,50.5Zm20.2-7.372c1.153-2.413,3.056-9.253,4.427-9.253s.868,3.436,2.093,3.733c1.032.253.238-1.536,3.1-1.852a11.75,11.75,0,0,1,5.985,1.435,14.83,14.83,0,0,0,6.5,0s-1.647-2.5.371-3.316,4.759,2.2,4.858,4.158-4.484,3.262-4.484,3.262l4.484,2.692s1.317-4.171,4.117-4.215c2.5-.048,5.621,4.512,4.158,6.571s-2.4.643-2.4.643-4.465,4.522-5.871,5.333a4.395,4.395,0,0,1-3.363,0s-.83,1.539,0,2.248c1.685,1.739,6.064,3.467,6.064,3.467S76.2,60.225,76.625,62.967,65.909,79.592,64.155,79.592H60c-1.694-2.993,2.739-12.559,2.739-12.559S60.459,64.506,60,62.967s.883-4.246.883-4.246l-6.074-2.8s-3.23,0-4.829-1.27-2.445-8.313-2.445-8.313L41.741,42.1s-5.035,6.394-6.672,5.576-3.515-2.138-2.365-4.544ZM63.9,33.162c-4.009,0-13.658-5.1-12.037-7.837,0-3.924,10.14-3.334,12.315-3.334s7.5,1.681,10.463,4.037-1.251,5.713-2.717,7.134-4.015,0-8.028,0Z" transform="translate(33 33)" fill="#efc62e" fill-rule="evenodd"/>
</svg>
